<svg xmlns="http://www.w3.org/2000/svg" xmlns:xlink="http://www.w3.org/1999/xlink"><symbol id="arrow-down" viewBox="0 0 10 6">
<path d="M5 6L0 0H10L5 6Z" fill="#06A9B3"/>
</symbol><symbol id="arrow-right" viewBox="0 0 32 18">
<path d="M0 9H30M30 9L22 1M30 9L22 17" stroke="#06A9B3" stroke-width="2"/>
</symbol><symbol id="facebook" viewBox="0 0 44 45">
<path d="M44 22.457C44 10.2965 34.1503 0.438477 22 0.438477C9.84973 0.438477 0 10.2965 0 22.457C0 33.4468 8.04504 42.5561 18.5625 44.2079V28.8217H12.9766V22.457H18.5625V17.606C18.5625 12.0876 21.847 9.03945 26.8722 9.03945C29.2785 9.03945 31.7969 9.46949 31.7969 9.46949V14.8881H29.0228C26.29 14.8881 25.4375 16.5855 25.4375 18.3285V22.457H31.5391L30.5637 28.8217H25.4375V44.2079C35.955 42.5561 44 33.4468 44 22.457Z" fill="#CFDCE3"/>
<path d="M30.5637 28.8216L31.5391 22.4569H25.4375V18.3285C25.4375 16.5872 26.29 14.8881 29.0228 14.8881H31.7969V9.46948C31.7969 9.46948 29.2793 9.03943 26.8722 9.03943C21.847 9.03943 18.5625 12.0876 18.5625 17.606V22.4569H12.9766V28.8216H18.5625V44.2079C20.8403 44.5646 23.1597 44.5646 25.4375 44.2079V28.8216H30.5637Z" fill="white"/>
</symbol><symbol id="instagram" viewBox="0 0 44 44">
<rect width="44" height="44" rx="22" fill="#CFDCE3"/>
<path fill-rule="evenodd" clip-rule="evenodd" d="M21.9993 11.272C25.6399 11.272 26.0707 11.2861 27.5087 11.3517C28.8378 11.4123 29.5598 11.6344 30.0404 11.8212C30.6333 12.0397 31.1696 12.3886 31.6098 12.8422C32.0631 13.2827 32.4117 13.8195 32.63 14.4128C32.8167 14.8938 33.0386 15.6163 33.0992 16.9465C33.1647 18.3855 33.1788 18.8166 33.1788 22.46C33.1788 26.1034 33.1647 26.5345 33.0992 27.9736C33.0386 29.3038 32.8167 30.0263 32.63 30.5072C32.4029 31.0955 32.0554 31.6298 31.6098 32.0757C31.1642 32.5217 30.6304 32.8694 30.0425 33.0967C29.562 33.2835 28.84 33.5056 27.5108 33.5662C26.0734 33.6318 25.6421 33.6459 22.0014 33.6459C18.3608 33.6459 17.9295 33.6318 16.4921 33.5662C15.1629 33.5056 14.4409 33.2835 13.9604 33.0967C13.3675 32.8782 12.8311 32.5293 12.3909 32.0757C11.9377 31.6352 11.5891 31.0984 11.3707 30.5051C11.184 30.0241 10.9621 29.3016 10.9015 27.9714C10.836 26.5324 10.822 26.1013 10.822 22.4579C10.822 18.8145 10.836 18.3834 10.9015 16.9443C10.9621 15.6141 11.184 14.8916 11.3707 14.4107C11.5891 13.8173 11.9377 13.2806 12.3909 12.84C12.8311 12.3864 13.3675 12.0375 13.9604 11.8191C14.4409 11.6322 15.1629 11.4102 16.4921 11.3495C17.93 11.284 18.3608 11.2699 22.0014 11.2699L21.9993 11.272ZM22.0014 8.81152C18.2986 8.81152 17.8342 8.82723 16.38 8.89385C14.9259 8.96047 13.9355 9.19282 13.0696 9.5297C12.1596 9.8725 11.3352 10.4096 10.6537 11.1036C9.96017 11.7856 9.42349 12.6107 9.08094 13.5213C8.74432 14.3879 8.51377 15.3812 8.44774 16.8333C8.38171 18.2853 8.36548 18.7522 8.36548 22.4579C8.36548 26.1635 8.38117 26.6282 8.44774 28.0835C8.51431 29.5388 8.74432 30.5278 9.08094 31.3944C9.42363 32.3047 9.9603 33.1293 10.6537 33.811C11.3349 34.5055 12.1594 35.0428 13.0696 35.3855C13.9355 35.7229 14.928 35.9536 16.379 36.0197C17.8299 36.0858 18.2975 36.1021 22.0004 36.1021C25.7032 36.1021 26.1676 36.0863 27.6218 36.0197C29.076 35.9531 30.0631 35.7229 30.929 35.3855C31.835 35.0352 32.6578 34.4992 33.3446 33.8118C34.0314 33.1245 34.567 32.3011 34.9171 31.3944C35.2542 30.5278 35.4848 29.5345 35.5508 28.0825C35.6168 26.6304 35.6331 26.1625 35.6331 22.4568C35.6331 18.7511 35.6174 18.2864 35.5508 16.8311C35.4843 15.3758 35.2542 14.3879 34.9171 13.5213C34.5748 12.611 34.0383 11.7863 33.3449 11.1047C32.6635 10.4103 31.8391 9.87282 30.929 9.5297C30.0631 9.19282 29.0705 8.96209 27.6196 8.89601C26.1687 8.82994 25.7021 8.81369 21.9993 8.81369L22.0014 8.81152ZM22.0013 15.451C20.6166 15.451 19.2631 15.862 18.1118 16.6318C16.9605 17.4017 16.0632 18.4959 15.5333 19.7761C15.0034 21.0563 14.8648 22.465 15.1349 23.8241C15.405 25.1832 16.0718 26.4316 17.0509 27.4114C18.03 28.3913 19.2774 29.0585 20.6355 29.3289C21.9935 29.5992 23.4012 29.4605 24.6804 28.9302C25.9597 28.3999 27.0531 27.5019 27.8223 26.3497C28.5916 25.1976 29.0022 23.843 29.0022 22.4573C29.0023 21.5372 28.8212 20.6261 28.4694 19.776C28.1176 18.926 27.6019 18.1536 26.9518 17.503C26.3017 16.8524 25.5299 16.3363 24.6805 15.9842C23.8311 15.6322 22.9207 15.451 22.0013 15.451ZM22.0013 27.0068C21.1022 27.0068 20.2232 26.7399 19.4756 26.24C18.728 25.7401 18.1454 25.0296 17.8013 24.1983C17.4572 23.367 17.3672 22.4522 17.5426 21.5697C17.718 20.6872 18.151 19.8766 18.7867 19.2403C19.4225 18.604 20.2325 18.1707 21.1144 17.9952C21.9962 17.8197 22.9103 17.9097 23.741 18.2541C24.5717 18.5984 25.2817 19.1815 25.7812 19.9297C26.2807 20.6779 26.5473 21.5575 26.5473 22.4573C26.5473 23.6639 26.0684 24.8211 25.2158 25.6743C24.3633 26.5274 23.207 27.0068 22.0013 27.0068ZM30.9146 15.1748C30.9146 16.0791 30.1822 16.8123 29.2786 16.8123C28.3751 16.8123 27.6426 16.0791 27.6426 15.1748C27.6426 14.2705 28.3751 13.5374 29.2786 13.5374C30.1822 13.5374 30.9146 14.2705 30.9146 15.1748Z" fill="white"/>
</symbol><symbol id="logo" viewBox="0 0 97 30">
<path d="M55.3923 29.9928C54.2015 29.9928 53.1298 29.7476 52.1771 29.2573C51.2385 28.7529 50.503 28.0595 49.9706 27.1769C49.4383 26.2943 49.1721 25.2926 49.1721 24.1718C49.1721 23.051 49.4383 22.0494 49.9706 21.1668C50.503 20.2842 51.2385 19.5977 52.1771 19.1073C53.1298 18.603 54.2015 18.3508 55.3923 18.3508C56.5832 18.3508 57.6479 18.603 58.5865 19.1073C59.5252 19.5977 60.2607 20.2842 60.793 21.1668C61.3254 22.0494 61.5916 23.051 61.5916 24.1718C61.5916 25.2926 61.3254 26.2943 60.793 27.1769C60.2607 28.0595 59.5252 28.7529 58.5865 29.2573C57.6479 29.7476 56.5832 29.9928 55.3923 29.9928ZM55.3923 27.303C56.2329 27.303 56.9194 27.0228 57.4517 26.4624C57.9981 25.888 58.2713 25.1245 58.2713 24.1718C58.2713 23.2192 57.9981 22.4626 57.4517 21.9023C56.9194 21.3279 56.2329 21.0407 55.3923 21.0407C54.5518 21.0407 53.8583 21.3279 53.3119 21.9023C52.7655 22.4626 52.4924 23.2192 52.4924 24.1718C52.4924 25.1245 52.7655 25.888 53.3119 26.4624C53.8583 27.0228 54.5518 27.303 55.3923 27.303Z" fill="#06A9B3"/>
<path d="M78.2617 18.3508C79.6767 18.3508 80.7975 18.7711 81.624 19.6117C82.4646 20.4383 82.8849 21.6851 82.8849 23.3523V29.8247H79.6067V23.8566C79.6067 22.96 79.4175 22.2945 79.0393 21.8602C78.675 21.4119 78.1497 21.1878 77.4632 21.1878C76.6927 21.1878 76.0832 21.4399 75.6349 21.9443C75.1866 22.4346 74.9625 23.1701 74.9625 24.1508V29.8247H71.6842V23.8566C71.6842 22.0774 70.9697 21.1878 69.5408 21.1878C68.7843 21.1878 68.1818 21.4399 67.7335 21.9443C67.2852 22.4346 67.0611 23.1701 67.0611 24.1508V29.8247H63.7828V18.5189H66.914V19.8218C67.3343 19.3455 67.8456 18.9813 68.448 18.7291C69.0644 18.4769 69.7369 18.3508 70.4654 18.3508C71.2639 18.3508 71.9854 18.5119 72.6299 18.8342C73.2743 19.1424 73.7927 19.5977 74.1849 20.2001C74.6473 19.6117 75.2287 19.1564 75.9291 18.8342C76.6436 18.5119 77.4212 18.3508 78.2617 18.3508Z" fill="#06A9B3"/>
<path d="M91.6413 27.366C92.2297 27.366 92.7481 27.2819 93.1964 27.1138C93.6587 26.9317 94.086 26.6515 94.4783 26.2733L96.2225 28.1645C95.1577 29.3834 93.6027 29.9928 91.5573 29.9928C90.2824 29.9928 89.1546 29.7476 88.174 29.2573C87.1933 28.7529 86.4368 28.0595 85.9044 27.1769C85.372 26.2943 85.1059 25.2926 85.1059 24.1718C85.1059 23.0651 85.365 22.0704 85.8834 21.1878C86.4158 20.2912 87.1372 19.5977 88.0479 19.1073C88.9725 18.603 90.0092 18.3508 91.158 18.3508C92.2367 18.3508 93.2174 18.582 94.1 19.0443C94.9826 19.4926 95.6831 20.1511 96.2015 21.0197C96.7338 21.8742 97 22.8899 97 24.0667L88.6363 25.6848C88.8744 26.2452 89.2457 26.6655 89.75 26.9457C90.2684 27.2259 90.8988 27.366 91.6413 27.366ZM91.158 20.8305C90.3314 20.8305 89.659 21.0967 89.1406 21.6291C88.6223 22.1614 88.3491 22.8969 88.3211 23.8356L93.8268 22.7638C93.6727 22.1754 93.3575 21.7061 92.8812 21.3559C92.4049 21.0056 91.8305 20.8305 91.158 20.8305Z" fill="#06A9B3"/>
<path fill-rule="evenodd" clip-rule="evenodd" d="M46.764 10.1077V29.8244H43.3597V23.7932H36.7752V29.8244H33.2728V10.2459L13.4771 14.205L12.7902 10.7707L34.6336 6.40199C34.7591 6.3734 34.8898 6.35831 35.024 6.35831C35.9833 6.35831 36.7624 7.12968 36.775 8.086C36.7752 8.09828 36.7752 8.11054 36.7752 8.12278V20.9143H43.3597V0H46.764V6.55039L85.2393 13.3904L84.6262 16.8388L46.764 10.1077Z" fill="#FFB257"/>
<path d="M6.74562 14.8689C8.10455 14.8689 9.28836 15.1351 10.297 15.6674C11.3057 16.1998 12.0903 16.9843 12.6507 18.0211C13.211 19.0578 13.4912 20.3116 13.4912 21.7826V29.8311H10.0869V26.3007H3.3623V29.8311H0V21.7826C0 20.3116 0.280192 19.0578 0.840575 18.0211C1.40096 16.9843 2.1855 16.1998 3.19419 15.6674C4.20288 15.1351 5.38669 14.8689 6.74562 14.8689ZM10.0869 23.5689V21.4674C10.0869 20.2486 9.7857 19.331 9.18329 18.7145C8.58087 18.0841 7.76131 17.7689 6.7246 17.7689C5.67388 17.7689 4.84732 18.0841 4.24491 18.7145C3.6565 19.331 3.3623 20.2486 3.3623 21.4674V23.5689H10.0869Z" fill="#06A9B3"/>
<path d="M20.676 29.9993C19.4011 29.9993 18.4065 29.663 17.692 28.9906C16.9775 28.3041 16.6202 27.3374 16.6202 26.0906V14.9998H19.8985V25.9014C19.8985 26.3778 20.0176 26.749 20.2557 27.0152C20.5079 27.2674 20.8581 27.3935 21.3065 27.3935C21.4746 27.3935 21.6427 27.3725 21.8108 27.3304C21.9929 27.2884 22.133 27.2394 22.2311 27.1833L22.3782 29.7261C21.8318 29.9082 21.2644 29.9993 20.676 29.9993Z" fill="#06A9B3"/>
<path d="M30.7963 29.2848C30.474 29.5229 30.0748 29.7051 29.5984 29.8311C29.1361 29.9432 28.6528 29.9993 28.1484 29.9993C26.7895 29.9993 25.7458 29.656 25.0173 28.9695C24.2888 28.2831 23.9245 27.2744 23.9245 25.9435V16.0247H27.2028V18.7776H29.9977V21.2993H27.2028V25.9014C27.2028 26.3778 27.3219 26.749 27.56 27.0152C27.7982 27.2674 28.1414 27.3935 28.5897 27.3935C29.0941 27.3935 29.5424 27.2534 29.9347 26.9732L30.7963 29.2848Z" fill="#06A9B3"/>
</symbol><symbol id="search" viewBox="0 0 16 16">
<path fill-rule="evenodd" clip-rule="evenodd" d="M11 6.5C11 8.98528 8.98528 11 6.5 11C4.01472 11 2 8.98528 2 6.5C2 4.01472 4.01472 2 6.5 2C8.98528 2 11 4.01472 11 6.5ZM10.3347 11.7489C9.25974 12.5356 7.93411 13 6.5 13C2.91015 13 0 10.0899 0 6.5C0 2.91015 2.91015 0 6.5 0C10.0899 0 13 2.91015 13 6.5C13 7.9341 12.5356 9.25973 11.7489 10.3347L16.0006 14.5854L14.5865 15.9998L10.3347 11.7489Z"/>
</symbol><symbol id="vk" viewBox="0 0 44 44">
<rect width="44" height="44" rx="22" fill="#CFDCE3"/>
<path fill-rule="evenodd" clip-rule="evenodd" d="M35.9126 15.572C36.1296 14.8897 35.9127 14.3936 34.9521 14.3936H31.7605C30.9549 14.3936 30.5831 14.8277 30.3662 15.2929C30.3662 15.2929 28.7239 19.2624 26.431 21.8364C25.6873 22.5807 25.3465 22.8288 24.9436 22.8288C24.7267 22.8288 24.4479 22.5807 24.4479 21.8985V15.541C24.4479 14.7347 24.2 14.3625 23.5183 14.3625H18.4986C18.0028 14.3625 17.6929 14.7347 17.6929 15.1068C17.6929 15.8821 18.8394 16.0682 18.9633 18.239V22.9529C18.9633 23.9762 18.7774 24.1623 18.3746 24.1623C17.2901 24.1623 14.6563 20.1618 13.076 15.603C12.7662 14.7037 12.4563 14.3625 11.6507 14.3625H8.42814C7.49856 14.3625 7.34363 14.7967 7.34363 15.2619C7.34363 16.0992 8.42814 20.3168 12.3943 25.899C15.0281 29.7135 18.7774 31.7602 22.1549 31.7602C24.2 31.7602 24.4479 31.2951 24.4479 30.5198V27.6357C24.4479 26.7053 24.6338 26.5502 25.2845 26.5502C25.7493 26.5502 26.5859 26.7983 28.476 28.628C30.645 30.7989 31.0169 31.7913 32.2253 31.7913H35.4169C36.3465 31.7913 36.7803 31.3261 36.5324 30.4267C36.2535 29.5274 35.2 28.2249 33.8366 26.6743C33.0929 25.806 31.9774 24.8446 31.6366 24.3794C31.1718 23.7592 31.2957 23.5111 31.6366 22.9529C31.6056 22.9529 35.5098 17.4327 35.9126 15.572Z" fill="white"/>
</symbol></svg>